<?xml version="1.0" encoding="utf-8"?>
<!-- Generator: Adobe Illustrator 24.0.3, SVG Export Plug-In . SVG Version: 6.00 Build 0)  -->
<svg version="1.1" id="Layer_1" xmlns="http://www.w3.org/2000/svg" xmlns:xlink="http://www.w3.org/1999/xlink" x="0px" y="0px"
	 viewBox="0 0 437 209" style="enable-background:new 0 0 437 209;" xml:space="preserve">
<style type="text/css">
	.st0{fill:#665A53;}
	.st1{fill:#1EB5D7;}
</style>
<g>
	<g>
		<g>
			<path class="st0" d="M49.44,9.52H24.36V0.02h34.6L49.44,9.52z"/>
			<path class="st0" d="M65.79,57.82V14.08L11.71,68.1H0L68.14,0h7.17v57.82H65.79z"/>
		</g>
		<g>
			<path class="st0" d="M42.1,94.97c-1.09-1.91-2.48-3.43-4.1-4.5c-1.61-1.06-3.37-1.8-5.23-2.18c-1.83-0.38-3.54-0.57-5.09-0.57H0
				v50.24h7.11v-20.92h20.57c2.18,0,4.26-0.25,6.2-0.74c1.98-0.49,3.71-1.34,5.15-2.51c1.44-1.17,2.61-2.7,3.45-4.55
				c0.84-1.84,1.26-4.13,1.26-6.83C43.74,99.39,43.19,96.89,42.1,94.97z M27.68,109.94H7.11V94.81h20.57c1.17,0,2.34,0.11,3.46,0.32
				c1.07,0.19,2.03,0.58,2.83,1.13c0.79,0.54,1.44,1.31,1.92,2.28c0.5,0.98,0.74,2.29,0.74,3.87c0,1.54-0.23,2.79-0.68,3.74
				c-0.45,0.94-1.06,1.7-1.81,2.25c-0.75,0.57-1.7,0.97-2.79,1.18C30.22,109.82,28.98,109.94,27.68,109.94z"/>
			<path class="st0" d="M72.57,88.11l-0.18-0.39h-6.61l-23.92,50.24h7.91l7.7-16.75h22.6l7.95,16.75h7.9L72.57,88.11z M76.88,114.11
				H60.97L69.07,97L76.88,114.11z"/>
			<path class="st0" d="M143.24,123.25l-0.51,0.51c-0.55,0.56-1.34,1.3-2.35,2.23c-0.97,0.89-2.24,1.79-3.73,2.68
				c-1.48,0.88-3.3,1.64-5.39,2.28c-2.09,0.63-4.56,0.95-7.34,0.95c-3.28,0-6.26-0.56-8.83-1.64c-2.58-1.09-4.79-2.54-6.57-4.32
				c-1.77-1.77-3.16-3.84-4.12-6.13c-0.97-2.3-1.45-4.68-1.45-7.1c0-2.41,0.47-4.78,1.42-7.04c0.94-2.25,2.29-4.28,4.03-6.03
				c1.74-1.75,3.86-3.19,6.31-4.25c2.44-1.06,5.21-1.6,8.23-1.6c2.4,0,4.63,0.3,6.65,0.88c2.03,0.59,3.87,1.31,5.45,2.13
				c1.59,0.83,2.97,1.69,4.11,2.57c1.16,0.9,2.07,1.64,2.71,2.19l0.48,0.41l5.07-4.91l-0.53-0.49c-0.65-0.61-1.62-1.47-2.89-2.56
				c-1.3-1.12-2.97-2.23-4.95-3.31c-1.99-1.08-4.35-2.04-7.01-2.82c-2.68-0.8-5.79-1.21-9.22-1.21c-3.15,0-6.36,0.55-9.55,1.63
				c-3.19,1.09-6.12,2.74-8.7,4.92c-2.58,2.18-4.7,4.94-6.3,8.2c-1.61,3.28-2.42,7.11-2.42,11.41c0,4.3,0.82,8.14,2.45,11.42
				c1.62,3.26,3.77,6.03,6.4,8.2c2.62,2.17,5.63,3.83,8.93,4.92c3.29,1.08,6.66,1.63,10.03,1.63c3.6,0,6.81-0.39,9.51-1.17
				c2.68-0.77,5-1.71,6.9-2.8c1.88-1.09,3.46-2.2,4.68-3.31c1.2-1.09,2.15-1.97,2.84-2.62l0.49-0.46L143.24,123.25z"/>
			<polygon class="st0" points="181.76,105.64 199.76,87.72 190.19,87.72 163.91,113.55 163.91,87.72 156.8,87.72 156.8,137.96 
				163.91,137.96 163.91,122.77 176.46,110.84 193.56,137.96 202.02,137.96 			"/>
			<path class="st0" d="M231.95,88.11l-0.19-0.39h-6.6l-23.92,50.24h7.9l7.69-16.75h22.6l7.96,16.75h7.89L231.95,88.11z
				 M236.26,114.11h-15.91l8.1-17.11L236.26,114.11z"/>
			<path class="st0" d="M280.84,110.01v7.1h16.83v6.16c0,0.99-0.31,2-0.91,3c-0.61,1.01-1.57,1.95-2.82,2.78
				c-1.28,0.84-2.91,1.54-4.85,2.06c-1.96,0.53-4.25,0.8-6.83,0.8c-3.11,0-5.97-0.49-8.49-1.46c-2.52-0.96-4.67-2.31-6.42-4
				c-1.75-1.68-3.12-3.73-4.08-6.09c-0.96-2.37-1.45-5-1.45-7.86c0-2.38,0.49-4.72,1.45-6.97c0.96-2.25,2.36-4.26,4.15-6
				c1.79-1.73,3.98-3.15,6.5-4.19c2.51-1.05,5.39-1.58,8.54-1.58c1.93,0,3.74,0.25,5.38,0.75c1.67,0.5,3.2,1.13,4.57,1.86
				c1.37,0.74,2.58,1.54,3.61,2.38c1.06,0.87,1.98,1.62,2.77,2.28l0.49,0.41l4.82-5.07l-0.5-0.48c-0.74-0.7-1.69-1.57-2.85-2.61
				c-1.18-1.08-2.66-2.12-4.39-3.09c-1.74-0.98-3.79-1.82-6.11-2.5c-2.34-0.69-5.04-1.04-8.05-1.04c-4.12,0-7.91,0.72-11.26,2.15
				c-3.34,1.41-6.26,3.34-8.66,5.71c-2.4,2.38-4.28,5.16-5.59,8.27c-1.31,3.11-1.98,6.38-1.98,9.71c0,4.51,0.78,8.48,2.31,11.79
				c1.54,3.32,3.6,6.09,6.14,8.25c2.53,2.16,5.48,3.79,8.74,4.85c3.26,1.06,6.65,1.6,10.09,1.6c3.17,0,6.16-0.36,8.91-1.06
				c2.75-0.71,5.17-1.72,7.2-3.02c2.06-1.31,3.7-2.94,4.87-4.84c1.19-1.92,1.8-4.08,1.8-6.42v-13.65H280.84z"/>
			<rect x="313.64" y="87.72" class="st0" width="7.11" height="50.24"/>
			<polygon class="st0" points="371.6,87.72 371.6,126.92 341.01,87.97 340.81,87.72 334.05,87.72 334.05,137.96 341.16,137.96 
				341.16,99.25 371.96,137.96 378.71,137.96 378.71,87.72 			"/>
			<path class="st0" d="M413.07,110.01v7.1h16.82v6.16c0,0.99-0.31,2-0.91,3c-0.62,1.01-1.57,1.95-2.82,2.78
				c-1.28,0.84-2.91,1.54-4.85,2.06c-1.95,0.53-4.25,0.8-6.83,0.8c-3.12,0-5.97-0.49-8.49-1.46c-2.51-0.96-4.67-2.31-6.42-4
				c-1.75-1.68-3.12-3.73-4.08-6.09c-0.96-2.37-1.45-5-1.45-7.86c0-2.38,0.49-4.72,1.45-6.97c0.96-2.25,2.35-4.26,4.15-6
				c1.8-1.73,3.98-3.15,6.5-4.19c2.52-1.05,5.39-1.58,8.54-1.58c1.93,0,3.73,0.25,5.38,0.75c1.66,0.5,3.2,1.13,4.56,1.86
				c1.37,0.74,2.58,1.54,3.61,2.38c1.07,0.87,1.99,1.62,2.77,2.28l0.49,0.41l4.83-5.07l-0.5-0.48c-0.74-0.7-1.7-1.57-2.85-2.61
				c-1.19-1.08-2.66-2.12-4.39-3.09c-1.74-0.98-3.79-1.82-6.11-2.5c-2.34-0.69-5.05-1.04-8.05-1.04c-4.12,0-7.9,0.72-11.26,2.15
				c-3.34,1.41-6.25,3.34-8.65,5.71c-2.4,2.38-4.28,5.16-5.59,8.27c-1.31,3.11-1.98,6.38-1.98,9.71c0,4.51,0.78,8.48,2.31,11.79
				c1.54,3.32,3.6,6.09,6.15,8.25c2.53,2.16,5.47,3.79,8.74,4.85c3.25,1.06,6.65,1.6,10.09,1.6c3.17,0,6.16-0.36,8.9-1.06
				c2.75-0.71,5.18-1.72,7.21-3.02c2.06-1.31,3.69-2.94,4.87-4.84c1.19-1.92,1.8-4.08,1.8-6.42v-13.65H413.07z"/>
		</g>
		<g>
			<path class="st1" d="M45.54,189.26c-0.45-1.31-1.05-2.5-1.79-3.56c-0.72-1.04-1.51-1.95-2.34-2.72c-0.53-0.49-1.07-0.92-1.6-1.28
				c0.26-0.21,0.52-0.45,0.8-0.73c0.6-0.6,1.16-1.36,1.64-2.24c0.49-0.87,0.89-1.9,1.2-3.04c0.32-1.16,0.48-2.49,0.48-3.93
				c0-2.49-0.47-4.64-1.38-6.41c-0.91-1.75-2.14-3.22-3.65-4.37c-1.5-1.14-3.23-1.97-5.15-2.49c-1.9-0.52-3.86-0.77-5.83-0.77H0
				v50.25h27.93c2.13,0,4.27-0.19,6.38-0.56c2.15-0.38,4.13-1.1,5.87-2.14c1.76-1.06,3.22-2.55,4.34-4.45
				c1.12-1.9,1.69-4.35,1.69-7.29C46.23,192.02,45.99,190.59,45.54,189.26z M27.93,200.85H7.11V185.8h20.82
				c3.54,0,6.34,0.7,8.32,2.06c1.93,1.33,2.87,3.27,2.87,5.92c0,1.35-0.25,2.48-0.76,3.38c-0.51,0.89-1.21,1.59-2.15,2.12
				c-0.97,0.54-2.16,0.94-3.54,1.19C31.27,200.73,29.68,200.85,27.93,200.85z M34.62,176.69c-1.5,1.33-3.74,2.01-6.69,2.01H7.11
				v-13.88h20.82c3.07,0,5.35,0.66,6.78,1.97c1.43,1.31,2.12,2.85,2.12,4.71C36.84,173.66,36.11,175.36,34.62,176.69z"/>
			<path class="st1" d="M91.15,186.57c1.56-0.57,2.99-1.46,4.28-2.65c1.28-1.2,2.33-2.75,3.13-4.6c0.79-1.85,1.2-4.18,1.2-6.91
				c0-2.21-0.34-4.13-1-5.71c-0.66-1.57-1.57-2.93-2.7-4.04c-1.12-1.09-2.41-1.98-3.84-2.64c-1.41-0.65-2.88-1.15-4.38-1.48
				c-1.47-0.34-2.98-0.56-4.47-0.67c-1.47-0.11-2.83-0.16-4.06-0.16H54.24v50.25h7.11v-20.33h18.28l11.28,20.33h8.15L87.65,187.5
				C88.8,187.31,89.98,187.01,91.15,186.57z M89.58,179.21c-0.99,0.54-2.15,0.9-3.47,1.06c-1.38,0.17-2.88,0.25-4.45,0.25H61.35
				v-15.7h21.36c1.24,0,2.49,0.15,3.72,0.44c1.2,0.28,2.28,0.73,3.2,1.34c0.91,0.59,1.64,1.38,2.19,2.35
				c0.55,0.95,0.82,2.14,0.82,3.54c0,1.87-0.27,3.36-0.83,4.41C91.27,177.9,90.52,178.69,89.58,179.21z"/>
			<path class="st1" d="M134.11,158.1l-0.19-0.39h-6.6l-23.92,50.25h7.91l7.7-16.75h22.6l7.95,16.75h7.9L134.11,158.1z
				 M138.42,184.1h-15.91l8.1-17.11L138.42,184.1z"/>
			<polygon class="st1" points="199.31,157.71 199.31,196.92 168.71,157.98 168.51,157.71 161.75,157.71 161.75,207.96 
				168.86,207.96 168.86,169.25 199.66,207.96 206.42,207.96 206.42,157.71 			"/>
			<path class="st1" d="M261.83,177.88c-0.35-1.82-0.92-3.67-1.67-5.5c-0.76-1.84-1.75-3.66-2.94-5.41
				c-1.2-1.76-2.69-3.34-4.41-4.71c-1.72-1.36-3.74-2.47-5.99-3.3c-2.27-0.83-4.86-1.24-7.7-1.24h-24.68v50.25h24.68
				c3.02,0,5.75-0.42,8.09-1.25c2.34-0.82,4.4-1.93,6.13-3.3c1.72-1.37,3.19-2.95,4.35-4.72c1.15-1.74,2.09-3.57,2.77-5.41
				c0.69-1.84,1.19-3.68,1.47-5.48c0.29-1.8,0.43-3.46,0.43-4.97C262.36,181.36,262.18,179.69,261.83,177.88z M254.22,188.85
				c-0.69,2.11-1.72,4.08-3.06,5.86c-1.32,1.77-3.02,3.25-5.04,4.42c-2,1.15-4.35,1.73-7,1.73h-17.57v-36.03h17.57
				c2.65,0,5,0.57,7,1.7c2.02,1.15,3.72,2.62,5.03,4.39c1.34,1.77,2.37,3.74,3.06,5.86c0.69,2.11,1.04,4.16,1.04,6.08
				C255.26,184.71,254.91,186.73,254.22,188.85z"/>
			<path class="st1" d="M311.96,185.62c-1.11-1.91-2.59-3.46-4.4-4.6c-1.77-1.13-3.84-1.94-6.12-2.41c-2.26-0.46-4.57-0.7-6.86-0.7
				h-5.94c-1.47,0-3.02-0.03-4.66-0.1c-1.59-0.06-3.08-0.29-4.43-0.7c-1.3-0.37-2.38-0.96-3.21-1.75c-0.78-0.74-1.16-1.81-1.16-3.29
				c0-0.84,0.26-1.75,0.77-2.71c0.51-0.96,1.34-1.86,2.47-2.66c1.15-0.82,2.68-1.52,4.53-2.08c1.85-0.57,4.14-0.85,6.81-0.85
				c2.15,0,4.08,0.19,5.75,0.57c1.66,0.38,3.16,0.87,4.46,1.46c1.31,0.59,2.5,1.24,3.53,1.91l3.42,2.23l4.43-5.55l-0.59-0.42
				c-0.61-0.43-1.5-1.06-2.68-1.87c-1.19-0.82-2.68-1.64-4.4-2.43c-1.72-0.79-3.75-1.5-6.04-2.09c-2.3-0.6-4.91-0.9-7.74-0.9
				c-3.79,0-7.1,0.46-9.83,1.37c-2.75,0.91-5.02,2.13-6.78,3.61c-1.76,1.49-3.08,3.17-3.93,4.99c-0.84,1.81-1.27,3.65-1.27,5.43
				c0,2.42,0.48,4.47,1.43,6.11c0.94,1.64,2.24,2.99,3.87,4.02c1.61,1.01,3.52,1.75,5.68,2.17c2.11,0.42,4.39,0.64,6.78,0.64h10.3
				c1.16,0,2.37,0.15,3.63,0.44c1.22,0.29,2.36,0.75,3.38,1.38c1,0.61,1.83,1.42,2.46,2.4c0.62,0.95,0.93,2.13,0.93,3.5
				c0,1.31-0.35,2.48-1.06,3.57c-0.72,1.1-1.78,2.07-3.16,2.88c-1.42,0.83-3.19,1.5-5.28,1.97c-2.1,0.49-4.53,0.73-7.21,0.73
				c-3.09,0-5.76-0.33-7.91-0.98c-2.18-0.65-4.07-1.44-5.63-2.35c-1.55-0.9-2.85-1.85-3.84-2.8c-1.05-1-1.95-1.84-2.7-2.49
				l-0.48-0.42l-5.02,4.95l0.43,0.49c0.71,0.79,1.71,1.79,2.98,2.97c1.29,1.2,2.95,2.4,4.92,3.55c1.97,1.15,4.38,2.15,7.16,2.97
				c2.79,0.81,6.12,1.23,9.91,1.23c3.03,0,6-0.32,8.85-0.96c2.86-0.64,5.44-1.63,7.66-2.94c2.25-1.33,4.08-3.03,5.44-5.06
				c1.37-2.06,2.07-4.51,2.07-7.29C313.66,189.94,313.09,187.54,311.96,185.62z"/>
		</g>
	</g>
</g>
<g>
	<path class="st0" d="M328.68,201.84h4.75v6.11h-4.75V201.84z"/>
	<path class="st0" d="M345.01,182.92v-0.14c0-14.24,10.65-26.04,25.18-26.04c8.99,0,14.39,3.31,19.56,8.06l-2.66,2.73
		c-4.39-4.24-9.42-7.41-16.98-7.41c-12.08,0-21.22,9.85-21.22,22.51v0.14c0,12.73,9.28,22.66,21.29,22.66
		c7.27,0,12.23-2.81,17.34-7.84l2.52,2.45c-5.32,5.25-11.08,8.78-20,8.78C355.66,208.82,345.01,197.38,345.01,182.92z"/>
	<path class="st0" d="M403.63,157.6h3.74v46.9h29.56v3.45h-33.3V157.6z"/>
</g>
</svg>
