<?xml version="1.0" encoding="utf-8"?>
<!-- Generator: Adobe Illustrator 24.0.3, SVG Export Plug-In . SVG Version: 6.00 Build 0)  -->
<svg version="1.1" id="Layer_1" xmlns="http://www.w3.org/2000/svg" xmlns:xlink="http://www.w3.org/1999/xlink" x="0px" y="0px"
	 viewBox="0 0 301.44 402.87" style="enable-background:new 0 0 301.44 402.87;" xml:space="preserve">
<style type="text/css">
	.st0{fill:#EEEEEE;}
	.st1{fill:#817872;}
	.st2{fill:#1EB5D7;}
	.st3{fill:#FFFFFF;}
</style>
<polygon class="st0" points="301.38,100.63 301.38,0.05 251.08,50.36 "/>
<polygon class="st1" points="200.85,100.64 301.42,100.64 251.12,50.34 "/>
<polygon class="st2" points="-0.37,201.28 100.2,201.28 49.89,150.97 "/>
<polygon class="st2" points="301.38,201.27 301.38,100.69 251.08,150.99 "/>
<polygon class="st0" points="200.81,100.69 200.81,201.27 251.12,150.97 "/>
<polygon class="st1" points="200.85,201.28 301.42,201.28 251.12,150.97 "/>
<polygon class="st1" points="201.01,301.95 100.44,301.95 150.74,352.26 "/>
<polygon class="st2" points="200.8,301.9 200.8,201.32 150.49,251.63 "/>
<polygon class="st1" points="200.8,201.28 100.22,201.28 150.52,251.59 "/>
<g>
	<polygon class="st3" points="301.44,402.49 301.44,301.91 251.14,352.22 	"/>
</g>
<polygon class="st3" points="100.27,301.9 200.83,301.9 150.52,251.6 "/>
<polygon class="st3" points="150.57,352.2 251.13,352.2 200.82,301.9 "/>
<g>
	<polygon class="st3" points="200.81,201.32 200.81,301.9 251.12,251.59 	"/>
</g>
<polygon class="st1" points="200.85,301.9 301.42,301.9 251.12,251.6 "/>
<polygon class="st2" points="301.42,301.9 200.85,301.9 251.15,352.2 "/>
<polygon class="st2" points="150.49,352.23 49.91,352.23 100.21,402.54 "/>
</svg>
