<?xml version="1.0" encoding="utf-8"?>
<!-- Generator: Adobe Illustrator 24.0.3, SVG Export Plug-In . SVG Version: 6.00 Build 0)  -->
<svg version="1.1" id="Layer_1" xmlns="http://www.w3.org/2000/svg" xmlns:xlink="http://www.w3.org/1999/xlink" x="0px" y="0px"
	 viewBox="0 0 496 497" style="enable-background:new 0 0 496 497;" xml:space="preserve">
<style type="text/css">
	.st0{fill:none;stroke:#665A53;stroke-miterlimit:10;}
</style>
<polygon class="st0" points="0.04,372.57 0.04,496.55 62.05,434.54 "/>
<polygon class="st0" points="248.02,248.52 248.02,372.5 310.04,310.5 "/>
<polygon class="st0" points="371.95,248.52 247.99,248.52 310,310.53 "/>
<polygon class="st0" points="247.96,248.52 123.99,248.52 186,310.53 "/>
<polygon class="st0" points="0.05,372.56 124.02,372.56 62.01,310.55 "/>
<polygon class="st0" points="124.01,372.5 124.01,248.52 62.01,310.53 "/>
<polygon class="st0" points="123.97,248.52 0,248.52 62.01,310.53 "/>
<polygon class="st0" points="372.03,248.51 496,248.51 434,186.5 "/>
<polygon class="st0" points="248.03,248.51 372.01,248.51 310,186.5 "/>
<polygon class="st0" points="124.04,124.48 124.04,248.47 186.04,186.45 "/>
<polygon class="st0" points="124.04,248.51 248.02,248.51 186,186.5 "/>
<g>
	<polygon class="st0" points="248.01,248.46 248.01,124.48 186,186.49 	"/>
</g>
<polygon class="st0" points="247.96,124.48 123.99,124.48 186,186.49 "/>
<polygon class="st0" points="0,124.48 0,248.47 62.01,186.45 "/>
<polygon class="st0" points="124.01,248.46 124.01,124.48 62.01,186.49 "/>
<polygon class="st0" points="123.97,124.48 0,124.48 62.01,186.49 "/>
<polygon class="st0" points="248.03,124.48 372.01,124.48 310,62.47 "/>
<polygon class="st0" points="124.04,124.48 248.02,124.48 186,62.47 "/>
<polygon class="st0" points="0.04,0.45 0.04,124.43 62.05,62.42 "/>
<polygon class="st0" points="0.05,124.48 124.02,124.48 62.01,62.47 "/>
</svg>
